<svg xmlns="http://www.w3.org/2000/svg" version="1.1" xmlns:xlink="http://www.w3.org/1999/xlink" xmlns:svgjs="http://svgjs.dev/svgjs" width="765" height="625" viewBox="0 0 300 300" class="svg-animations " ><svg viewBox="0 0 138.0046844482422 140.0351104736328" width="100" height="100" x="100" y="83.63000011444092" style="fill: rgb(255, 255, 255);"><svg width="138" height="135" viewBox="0 0 138 135" xmlns="http://www.w3.org/2000/svg">
<path d="M137.96 48.2688C137.839 47.7053 137.489 47.2224 137.005 46.9407C135.083 45.8272 118.134 35.9802 116.306 35.1753L116.024 35.0545C113.04 33.6996 111.696 34.035 101.413 41.2659C94.2627 46.2967 87.9185 50.8714 83.7114 53.9033C82.5555 54.7351 81.5877 55.4327 80.7678 56.0095C80.163 55.1241 79.464 54.3058 78.6441 53.5545C77.2328 52.2666 75.6199 51.3141 73.9129 50.7104C73.9801 49.6103 74.0607 48.1749 74.1548 46.4443C74.4371 41.2927 74.8806 33.5118 75.4586 24.8588C76.2113 13.6434 76.7355 13.3885 77.5823 12.9592L77.9049 12.7983C78.9936 12.2482 89.6927 8.12967 97.4886 5.16485C98.0531 8.12967 98.9805 14.113 99.5047 23.2355C100.016 31.9824 89.6524 35.3899 84.0609 36.5973C85.1496 32.9349 85.1631 28.8834 85.1765 25.2076C85.1765 23.1013 85.19 21.1159 85.4185 19.5999C85.7814 17.2388 89.2223 15.6826 91.6551 14.9447C93.0933 21.1293 90.2573 24.9527 90.096 25.1405C89.4105 26.0125 89.5583 27.2736 90.432 27.9578C91.3057 28.6554 92.5691 28.5078 93.2681 27.6358C93.4697 27.3809 98.2144 21.2768 94.9616 11.8592C94.6391 10.9201 93.6713 10.3566 92.7035 10.531C91.6551 10.7189 82.4076 12.5568 81.4399 18.9828C81.1711 20.7939 81.1576 22.9269 81.1576 25.1807C81.1442 29.6079 81.1307 34.6387 79.0608 38.1535C78.671 38.8109 78.6979 39.6158 79.1011 40.2598C79.5044 40.8903 80.2302 41.2525 80.9963 41.1854C81.9506 41.0915 104.465 38.7706 103.551 23.0074C102.744 8.96143 101.024 2.22686 100.943 1.94513C100.795 1.3951 100.432 0.925556 99.9214 0.657247C99.3838 0.362106 98.7924 0.32186 98.2547 0.536507C96.1713 1.32802 77.8511 8.27724 76.0634 9.18949L75.7946 9.32365C72.8644 10.7725 72.273 12.0336 71.4262 24.5636C70.8483 33.2435 70.4047 41.0378 70.1225 46.1894C70.0418 47.6249 69.9746 48.8591 69.9208 49.8652C67.0444 49.6908 64.1277 50.4019 61.6142 51.9446C60.7943 51.1934 59.6787 50.1872 58.3077 48.953C54.477 45.4918 48.6839 40.2463 42.3128 34.3435C34.0465 26.6967 34.1809 26.1332 34.3825 25.2076L34.4632 24.8588C34.7185 23.6648 38.2401 12.7714 40.8477 4.86971C43.509 6.29175 48.7376 9.32365 56.184 14.6764C63.3078 19.7877 59.4502 29.9701 56.8561 35.068C54.6921 31.9153 51.5468 29.353 48.6839 27.0321C47.0575 25.704 45.5118 24.4429 44.4768 23.316C42.8639 21.5452 43.8316 17.8961 44.7859 15.5484C50.5119 18.3254 51.6947 22.9269 51.7484 23.1818C51.9904 24.2551 53.0522 24.9393 54.1544 24.6978C55.2431 24.4563 55.9286 23.3831 55.6867 22.2964C55.6195 21.9744 53.8453 14.4618 44.4768 11.0542C43.5494 10.7189 42.501 11.1079 42.0171 11.9799C41.5063 12.919 37.1245 21.2366 41.5063 26.0393C42.7429 27.3943 44.3962 28.7358 46.1435 30.1579C49.5844 32.9617 53.4824 36.1278 54.9206 39.9512C55.1894 40.6622 55.8345 41.1586 56.5872 41.2391C57.34 41.333 58.0792 40.9842 58.4959 40.3537C59.0335 39.5487 71.3859 20.6329 58.5362 11.4165C47.0844 3.20619 40.767 0.308444 40.4982 0.187705C39.974 -0.053774 39.3826 -0.053774 38.8584 0.174289C38.3342 0.402352 37.931 0.845063 37.7562 1.38168C37.0573 3.48791 30.9416 22.0818 30.5249 24.0404L30.4577 24.3356C29.7453 27.5285 30.3502 28.7761 39.5842 37.3083C45.9822 43.2246 51.7753 48.47 55.6195 51.9446C56.7754 52.991 57.7297 53.863 58.5093 54.5606C56.5469 56.7608 55.391 59.4036 55.0281 62.127C53.9125 62.3014 52.3264 62.5429 50.364 62.838C45.2564 63.6295 37.5277 64.8235 28.8985 66.0577C17.7424 67.6542 17.3929 67.198 16.7881 66.4602L16.5596 66.1785C15.7934 65.2394 9.52988 55.6339 5.00022 48.6578C7.79598 47.4907 13.4681 45.3442 22.2855 42.9294C30.7669 40.622 36.2508 50.0128 38.5896 55.2314C34.7723 54.9363 30.8072 55.7546 27.1915 56.5059C25.135 56.9352 23.1861 57.3377 21.6538 57.4316C19.2747 57.5791 17.03 54.5204 15.7934 52.3069C21.5597 49.6103 25.8877 51.5958 26.1162 51.7032C27.1109 52.1861 28.3071 51.7836 28.8044 50.7909C29.3018 49.7982 28.8985 48.5908 27.9039 48.0944C27.6082 47.9468 20.6457 44.5795 12.0971 49.7177C11.2503 50.2275 10.8874 51.2873 11.2638 52.1995C11.667 53.1923 15.4171 61.805 21.8823 61.4428C23.7103 61.3355 25.8071 60.8928 28.0114 60.4366C32.3529 59.5244 37.2858 58.5048 41.1703 59.7927C41.8961 60.0342 42.6757 59.8464 43.2268 59.3232C43.7644 58.7865 43.966 58.0084 43.7375 57.284C43.4284 56.3717 36.4524 34.8801 21.2102 39.0389C7.6078 42.755 1.37112 45.8406 1.11574 45.9613C0.604977 46.2162 0.228626 46.6723 0.0673321 47.2358C-0.0805203 47.7858 0.0135676 48.3761 0.322713 48.8591C1.53241 50.7238 12.1509 67.1712 13.4144 68.7274L13.6025 68.9689C14.7854 70.458 15.7397 71.1824 18.7639 71.1824C20.9548 71.1824 24.221 70.8068 29.4362 70.0555C38.0788 68.8213 45.8209 67.6139 50.942 66.8224C52.5952 66.5675 53.9662 66.3529 55.0281 66.1919C55.4448 68.8616 56.6141 71.4373 58.5497 73.5436C57.9717 74.5229 57.1518 75.9315 56.0899 77.7426C53.4823 82.21 49.5575 88.9579 45.0816 96.4438C39.302 106.103 38.7106 106.103 37.7697 106.09H37.4068C36.1567 106.09 24.7721 104.909 16.4924 104.024C17.3392 101.126 19.2344 95.3706 22.9172 87.0127C26.4523 78.9902 37.2186 80.6404 42.7563 82.1161C40.1219 84.8931 38.267 88.4884 36.5869 91.7618C35.6191 93.6265 34.7185 95.3974 33.818 96.645C32.4201 98.5903 28.6432 98.4024 26.1431 97.9597C27.6754 91.7886 31.9497 89.6824 32.1647 89.5751C33.1728 89.1055 33.6164 87.925 33.1459 86.9188C32.6889 85.9126 31.4927 85.4565 30.4711 85.9261C30.1754 86.0602 23.1726 89.347 21.7882 99.2074C21.6538 100.187 22.2452 101.126 23.1995 101.421C24.221 101.729 33.2938 104.278 37.0842 98.9927C38.146 97.5036 39.1272 95.612 40.1622 93.6131C42.1918 89.669 44.4902 85.2016 47.9312 83.0015C48.5629 82.599 48.9258 81.8612 48.8452 81.1099C48.778 80.3586 48.2806 79.7147 47.5817 79.433C46.6811 79.0842 25.5651 70.941 19.2075 85.4028C13.5353 98.2817 12.0165 105.07 11.9493 105.352C11.8283 105.915 11.9493 106.492 12.2853 106.962C12.6213 107.431 13.1321 107.726 13.7101 107.793C15.9279 108.035 35.3637 110.141 37.4068 110.141C37.4068 110.141 37.4068 110.141 37.4202 110.141H37.7294C37.7831 110.141 37.8369 110.141 37.9041 110.141C41.0493 110.141 42.2187 109.135 48.5495 98.5366C53.0388 91.0373 56.977 84.2759 59.5846 79.7952C60.4583 78.3061 61.1572 77.0987 61.7083 76.1596C63.9664 77.528 66.5068 78.1987 69.0472 78.1987C69.2353 78.1987 69.4235 78.1719 69.6117 78.1719C70.0149 79.2317 70.5929 80.7477 71.3187 82.6795C73.1602 87.5091 75.9425 94.8205 78.9533 103.004C82.8378 113.562 82.4749 114.005 81.8566 114.743L81.6281 115.024C80.8619 115.977 72.7569 124.08 66.8563 129.942C65.1358 127.46 61.8427 122.376 57.6491 114.26C53.6168 106.465 61.6949 99.1537 66.3186 95.7864C66.8159 99.583 68.4558 103.286 69.9477 106.653C70.7945 108.571 71.601 110.396 72.0042 111.872C72.6359 114.179 70.1225 116.996 68.2004 118.66C64.3562 113.589 65.4046 108.947 65.4584 108.706C65.7272 107.632 65.082 106.546 64.0067 106.264C62.9315 105.982 61.8293 106.626 61.547 107.713C61.4664 108.021 59.6249 115.521 66.4261 122.805C67.0982 123.53 68.2138 123.65 69.0337 123.1C69.9208 122.497 77.6092 117.063 75.8887 110.812C75.4048 109.054 74.5446 107.096 73.6306 105.043C71.8429 100.992 69.8133 96.3901 70.2569 92.3387C70.3375 91.5874 70.0015 90.8495 69.3698 90.4337C68.738 90.0178 67.9316 89.9909 67.2729 90.3532C66.4396 90.8227 46.8156 102.092 54.0738 116.111C60.5389 128.614 64.8535 134.061 65.0417 134.289C65.4046 134.732 65.9288 135.013 66.4934 135.04C66.5337 135.04 66.574 135.04 66.6143 135.04C67.1385 135.04 67.6627 134.825 68.0391 134.45C69.6251 132.88 83.5233 119.103 84.7867 117.533L84.9749 117.291C87.0583 114.769 87.0852 113.388 82.7437 101.609C79.7194 93.3985 76.9371 86.087 75.0957 81.244C74.5043 79.6879 74.0204 78.4268 73.644 77.4341C75.8349 76.6962 77.878 75.4217 79.5447 73.5972C80.0286 73.074 80.4452 72.5106 80.8216 71.9471C81.8969 72.2423 83.4023 72.6447 85.2437 73.1545C90.2438 74.5095 97.7843 76.5486 106.172 78.9232C117.005 81.9953 117.153 82.5453 117.395 83.471L117.489 83.8198C117.812 84.987 119.613 96.3096 120.903 104.52C117.879 104.453 111.817 104.117 102.784 102.736C94.1014 101.408 92.9186 90.5946 92.9052 84.8796C96.2789 86.7041 100.231 87.5627 103.833 88.3408C105.889 88.7835 107.838 89.1994 109.276 89.7495C111.521 90.5946 112.314 94.2839 112.543 96.806C106.239 96.9268 103.026 93.3582 102.865 93.1704C102.153 92.3252 100.889 92.2045 100.042 92.9021C99.1822 93.6131 99.0612 94.8742 99.7601 95.7328C99.9752 95.9877 104.948 101.877 114.868 100.67C115.849 100.549 116.602 99.7306 116.642 98.7378C116.682 97.678 116.79 88.2603 110.701 85.9797C108.981 85.3358 106.897 84.8931 104.693 84.4101C100.352 83.471 95.4321 82.4112 92.4213 79.661C91.8568 79.1512 91.0637 79.0037 90.3513 79.2586C89.639 79.5269 89.1416 80.1574 89.061 80.9087C88.9535 81.8612 86.5475 104.319 102.18 106.72C113 108.37 119.613 108.571 122.166 108.571C122.906 108.571 123.296 108.558 123.363 108.558C123.927 108.531 124.465 108.263 124.828 107.82C125.191 107.377 125.352 106.801 125.258 106.237C124.922 104.037 121.911 84.7052 121.387 82.7734L121.306 82.4783C120.486 79.3122 119.384 78.4805 107.274 75.0595C98.8596 72.685 91.3057 70.6324 86.3056 69.2774C84.8405 68.875 83.5905 68.5396 82.6093 68.2713C83.4829 65.4809 83.4561 62.4758 82.5689 59.7122C83.4561 59.0683 84.6254 58.2365 86.0636 57.2035C90.2573 54.185 96.6015 49.6103 103.725 44.593C112.932 38.1133 113.47 38.3548 114.33 38.7572L114.666 38.9048C115.782 39.4012 125.728 45.1162 132.933 49.2884C130.97 51.5958 126.898 56.0766 120.137 62.2209C113.645 68.1237 104.478 62.2343 100.016 58.639C103.551 57.1767 106.709 54.6411 109.586 52.3337C111.225 51.019 112.785 49.7713 114.102 48.9932C116.158 47.7858 119.545 49.4896 121.656 50.9116C117.744 55.929 112.986 56.1169 112.731 56.1169C111.629 56.1303 110.728 57.0425 110.742 58.1426C110.755 59.2427 111.656 60.1415 112.758 60.1415H112.771C113.094 60.1415 120.836 59.9805 126.118 51.5288C126.642 50.6836 126.481 49.5835 125.728 48.9396C124.922 48.242 117.664 42.2318 112.059 45.5186C110.473 46.4443 108.819 47.7858 107.059 49.1945C103.604 51.9715 99.6795 55.1241 95.6337 55.7278C94.881 55.8351 94.2627 56.3583 94.0208 57.0828C93.7788 57.7938 93.967 58.5853 94.4912 59.1353C95.002 59.6451 104.155 68.8347 113.645 68.8347C116.777 68.8347 119.935 67.842 122.839 65.1991C133.269 55.7278 137.422 50.1604 137.597 49.9189C137.946 49.4091 138.081 48.8322 137.96 48.2688ZM62.2056 71.5044C58.0658 67.7347 57.7701 61.2952 61.547 57.1633C65.324 53.0313 71.7757 52.7361 75.9156 56.5059C80.0555 60.2756 80.3512 66.7151 76.5742 70.8471C72.7972 74.979 66.3455 75.2742 62.2056 71.5044Z"/>
</svg></svg><svg x="75.91500091552734" y="183.63000011444092" style="fill: rgb(255, 255, 255);"><path d="M13.66 19.12Q12.90 20.88 11.95 22.18Q11.01 23.47 9.97 24.35Q8.93 25.23 7.87 25.65Q6.82 26.06 5.82 26.06L5.82 26.06Q4.83 26.06 4.02 25.62Q3.20 25.17 2.59 24.27Q1.98 23.38 1.62 22.06Q1.25 20.75 1.25 18.99L1.25 18.99Q1.25 15.98 2.08 13.06Q2.91 10.13 4.42 7.79Q5.92 5.46 7.98 4.03Q10.05 2.61 12.54 2.61L12.54 2.61Q13.31 2.61 14.02 2.93Q14.72 3.25 15.23 3.82Q15.74 4.40 16.05 5.23Q16.35 6.06 16.35 7.09L16.35 7.09Q16.35 7.28 16.35 7.49Q16.35 7.70 16.32 7.92L16.32 7.92L12.13 9.04Q11.74 8.24 11.23 8.24L11.23 8.24Q10.72 8.24 10.16 8.83Q9.60 9.42 9.06 10.37Q8.51 11.31 8 12.48Q7.49 13.65 7.10 14.83Q6.72 16.02 6.48 17.09Q6.24 18.16 6.24 18.83L6.24 18.83Q6.24 19.86 6.51 20.27Q6.78 20.69 7.23 20.69L7.23 20.69Q7.58 20.69 8.03 20.42Q8.48 20.14 8.86 19.71Q9.25 19.28 9.57 18.74Q9.89 18.19 10.02 17.65L10.02 17.65L13.66 19.12ZM26.56 19.76Q26.11 21.58 25.30 22.86Q24.48 24.14 23.38 24.98Q22.27 25.81 21.02 26.19Q19.78 26.58 18.53 26.58L18.53 26.58Q17.79 26.58 17.02 26.34Q16.26 26.10 15.65 25.62Q15.04 25.14 14.64 24.40Q14.24 23.66 14.24 22.67L14.24 22.67Q14.24 22.54 14.24 22.42Q14.24 22.29 14.27 22.16L14.27 22.16Q14.40 20.85 14.69 18.99Q14.98 17.14 15.30 15.12Q15.62 13.10 16 11.07Q16.38 9.04 16.69 7.38Q16.99 5.71 17.22 4.61Q17.44 3.50 17.50 3.25L17.50 3.25Q18.18 3.18 19.10 3.09Q20.03 2.99 20.83 2.93L20.83 2.93Q21.82 2.83 22.78 2.74L22.78 2.74Q21.95 6.61 21.31 9.74L21.31 9.74Q21.02 11.09 20.75 12.43Q20.48 13.78 20.24 14.90Q20 16.02 19.82 16.83Q19.65 17.65 19.54 18.16Q19.42 18.67 19.28 19.46Q19.14 20.24 19.14 20.88L19.14 20.88Q19.14 21.39 19.39 21.73Q19.65 22.06 20.03 22.06L20.03 22.06Q20.58 22.06 20.93 21.63Q21.28 21.20 21.52 20.59Q21.76 19.98 21.87 19.36Q21.98 18.74 22.08 18.38L22.08 18.38Q22.27 17.46 22.51 16.32Q22.75 15.18 22.99 13.95Q23.23 12.72 23.47 11.44Q23.71 10.16 23.94 8.94L23.94 8.94Q24.48 6.13 24.99 3.12L24.99 3.12L29.86 2.80Q29.86 2.80 29.70 3.63Q29.54 4.46 29.28 5.84Q29.02 7.22 28.72 8.98Q28.42 10.74 28.03 12.64Q27.65 14.54 27.28 16.38Q26.91 18.22 26.56 19.76L26.56 19.76ZM40.83 18.10Q40.83 19.89 40.14 21.34Q39.46 22.80 38.29 23.86Q37.12 24.91 35.54 25.49Q33.95 26.06 32.13 26.06L32.13 26.06Q30.85 26.06 29.57 25.38Q28.29 24.69 27.10 23.18L27.10 23.18L29.47 18.54Q29.70 18.96 30.14 19.39Q30.59 19.82 31.15 20.14Q31.71 20.46 32.27 20.67Q32.83 20.88 33.28 20.88L33.28 20.88Q33.66 20.88 34.08 20.75Q34.50 20.62 34.85 20.37Q35.20 20.11 35.41 19.78Q35.62 19.44 35.62 18.99L35.62 18.99Q35.62 18.22 35.12 17.57Q34.62 16.91 33.89 16.32Q33.15 15.73 32.29 15.12Q31.42 14.51 30.70 13.84Q29.98 13.17 29.47 12.34Q28.96 11.50 28.96 10.48L28.96 10.48Q28.96 8.82 29.95 7.38Q30.94 5.94 32.43 4.90Q33.92 3.86 35.68 3.25Q37.44 2.64 39.01 2.64L39.01 2.64Q39.87 2.64 40.64 2.85Q41.41 3.06 41.97 3.52Q42.53 3.98 42.86 4.69Q43.20 5.39 43.20 6.45L43.20 6.45Q43.20 6.90 43.12 7.34Q43.04 7.79 42.98 8.30L42.98 8.30L38.34 9.65Q38.40 9.39 38.45 9.14Q38.50 8.88 38.50 8.62L38.50 8.62Q38.50 7.66 38.16 7.23Q37.82 6.80 37.28 6.80L37.28 6.80Q37.02 6.80 36.66 6.99Q36.29 7.18 35.92 7.49Q35.55 7.79 35.30 8.21Q35.04 8.62 35.04 9.10L35.04 9.10Q35.04 9.87 35.47 10.38Q35.90 10.90 36.54 11.34Q37.18 11.79 37.94 12.26Q38.69 12.72 39.33 13.46Q39.97 14.19 40.40 15.30Q40.83 16.40 40.83 18.10L40.83 18.10ZM49.06 25.14L43.30 26.03Q44.03 22.51 44.70 19.09L44.70 19.09Q44.99 17.65 45.28 16.08Q45.57 14.51 45.84 12.99Q46.11 11.47 46.32 10.05Q46.53 8.62 46.69 7.44L46.69 7.44Q45.95 7.34 45.20 7.38Q44.45 7.41 43.71 7.18L43.71 7.18Q43.74 6.67 43.74 6Q43.74 5.33 43.78 4.66L43.78 4.66Q43.81 3.92 43.84 3.09L43.84 3.09Q44.67 3.15 45.50 3.18Q46.34 3.22 47.17 3.22L47.17 3.22Q48.80 3.22 50.32 3.14Q51.84 3.06 53.14 2.94Q54.43 2.83 55.68 2.67L55.68 2.67L55.33 4.40Q55.17 5.14 55.02 5.90Q54.88 6.67 54.75 7.22L54.75 7.22Q54.05 7.41 53.33 7.49Q52.61 7.57 51.90 7.70L51.90 7.70Q51.68 8.78 51.42 10.11Q51.17 11.44 50.93 12.86Q50.69 14.29 50.46 15.76Q50.24 17.23 50.02 18.58L50.02 18.58Q49.50 21.74 49.06 25.14L49.06 25.14ZM69.92 8.69Q69.92 11.31 69.36 13.63Q68.80 15.95 67.87 17.89Q66.94 19.82 65.71 21.34Q64.48 22.86 63.14 23.94Q61.79 25.01 60.42 25.57Q59.04 26.13 57.79 26.13L57.79 26.13Q56.74 26.13 55.87 25.73Q55.01 25.33 54.37 24.54Q53.73 23.76 53.36 22.53Q52.99 21.30 52.99 19.57L52.99 19.57Q52.99 17.78 53.44 15.79Q53.89 13.81 54.66 11.86Q55.42 9.90 56.54 8.14Q57.66 6.38 59.01 5.02Q60.35 3.66 61.89 2.86Q63.42 2.06 65.09 2.06L65.09 2.06Q66.53 2.06 67.47 2.66Q68.42 3.25 68.94 4.19Q69.47 5.14 69.70 6.32Q69.92 7.50 69.92 8.69L69.92 8.69ZM57.76 18.74Q57.76 19.09 57.89 19.47Q58.02 19.86 58.24 20.14Q58.46 20.43 58.80 20.64Q59.14 20.85 59.52 20.85L59.52 20.85Q60.96 20.85 62.08 19.86Q63.20 18.86 63.94 17.42Q64.67 15.98 65.07 14.35Q65.47 12.72 65.47 11.38L65.47 11.38Q65.47 10.99 65.42 10.54Q65.38 10.10 65.23 9.71Q65.09 9.33 64.78 9.06Q64.48 8.78 63.97 8.78L63.97 8.78Q62.94 8.78 62.08 9.30Q61.22 9.81 60.53 10.66Q59.84 11.50 59.33 12.58Q58.82 13.65 58.45 14.75Q58.08 15.86 57.92 16.91Q57.76 17.97 57.76 18.74L57.76 18.74ZM72.10 25.46L66.82 25.81Q68.22 21.55 69.50 17.46L69.50 17.46Q70.05 15.73 70.62 13.84Q71.20 11.95 71.78 10.10Q72.35 8.24 72.85 6.51Q73.34 4.78 73.73 3.31L73.73 3.31Q75.49 3.31 77.06 3.12Q78.62 2.93 80.45 2.77L80.45 2.77Q80.35 3.47 80.24 4.35Q80.13 5.23 79.98 6.19Q79.84 7.15 79.68 8.18Q79.52 9.20 79.30 10.80Q79.07 12.40 78.69 14.80L78.69 14.80L79.10 14.80Q80.03 12.37 80.64 10.75Q81.25 9.14 81.63 8.11Q82.02 7.09 82.42 6.11Q82.82 5.14 83.18 4.26Q83.55 3.38 83.87 2.70L83.87 2.70Q84.67 2.64 85.38 2.54Q86.08 2.45 86.78 2.34Q87.49 2.22 88.21 2.11Q88.93 2 89.79 1.84L89.79 1.84Q89.47 3.70 89.18 5.65Q88.90 7.60 88.67 9.54Q88.45 11.47 88.24 13.36Q88.03 15.25 87.87 16.94L87.87 16.94Q87.49 20.91 87.20 24.69L87.20 24.69L81.63 25.68Q81.63 25.52 81.68 24.82Q81.73 24.11 81.81 23.09Q81.89 22.06 82.03 20.82Q82.18 19.57 82.32 18.32Q82.46 17.07 82.62 15.90Q82.78 14.74 82.94 13.90L82.94 13.90L82.66 13.90Q82.21 15.25 81.66 16.74Q81.12 18.22 80.56 19.76Q80 21.30 79.46 22.77Q78.91 24.24 78.50 25.58L78.50 25.58Q77.38 25.62 76.58 25.66Q75.78 25.71 74.72 25.78L74.72 25.78L75.74 13.90L75.26 13.90Q75.20 14.32 74.94 15.30Q74.69 16.27 74.35 17.54Q74.02 18.80 73.63 20.16Q73.25 21.52 72.91 22.69Q72.58 23.86 72.35 24.61Q72.13 25.36 72.10 25.46L72.10 25.46ZM92.90 24.69L87.71 26.03Q88.58 21.78 89.38 17.71L89.38 17.71Q89.66 15.98 90.02 14.11Q90.37 12.24 90.67 10.40Q90.98 8.56 91.25 6.85Q91.52 5.14 91.68 3.73L91.68 3.73Q93.50 3.15 95.62 2.88Q97.73 2.61 99.81 2.61L99.81 2.61Q101.06 2.61 101.87 2.90Q102.69 3.18 103.15 3.71Q103.62 4.24 103.81 4.94Q104 5.65 104 6.51L104 6.51Q104 7.79 103.55 9.02Q103.10 10.26 102.35 11.36Q101.60 12.46 100.62 13.38Q99.65 14.29 98.53 14.86L98.53 14.86Q99.10 16.14 99.76 17.66Q100.42 19.18 100.99 20.56L100.99 20.56Q101.63 22.16 102.30 23.76L102.30 23.76L97.34 25.49Q96.70 23.28 96.19 21.33L96.19 21.33Q95.97 20.53 95.74 19.68Q95.52 18.83 95.33 18.08Q95.14 17.33 95.01 16.75Q94.88 16.18 94.85 15.86L94.85 15.86L94.43 15.98Q94.24 17.01 93.97 18.48Q93.70 19.95 93.47 21.33L93.47 21.33Q93.18 22.96 92.90 24.69L92.90 24.69ZM96.26 7.06L95.23 12.14Q95.84 12.08 96.72 11.63Q97.60 11.18 98.40 10.56Q99.20 9.94 99.78 9.26Q100.35 8.59 100.35 8.08L100.35 8.08Q100.35 7.73 100.13 7.52Q99.90 7.31 99.50 7.20Q99.10 7.09 98.62 7.06Q98.14 7.02 97.63 7.02L97.63 7.02Q97.28 7.02 96.91 7.04Q96.54 7.06 96.26 7.06L96.26 7.06ZM113.57 25.36Q112.77 25.49 111.81 25.65Q110.85 25.81 110.08 25.94L110.08 25.94Q110.21 24.88 110.34 23.86L110.34 23.86Q110.43 22.96 110.51 22.06Q110.59 21.17 110.66 20.53L110.66 20.53L107.87 20.53L106.59 25.14Q105.89 25.23 104.93 25.34Q103.97 25.46 103.14 25.55L103.14 25.55Q102.11 25.68 101.12 25.81L101.12 25.81Q102.40 21.55 103.65 17.42L103.65 17.42Q104.16 15.70 104.72 13.81Q105.28 11.92 105.84 10.05Q106.40 8.18 106.91 6.45Q107.42 4.72 107.81 3.28L107.81 3.28Q109.98 3.12 112.24 2.90Q114.50 2.67 116.64 2.29L116.64 2.29Q116.54 3.31 116.43 4.83Q116.32 6.35 116.22 8.14Q116.13 9.94 116.03 11.89Q115.94 13.84 115.84 15.73L115.84 15.73Q115.68 20.14 115.49 25.10L115.49 25.10Q114.53 25.26 113.57 25.36L113.57 25.36ZM110.62 9.30L108.64 17.33Q108.77 17.33 109.10 17.31Q109.44 17.30 109.81 17.28Q110.18 17.26 110.50 17.25Q110.82 17.23 110.94 17.20L110.94 17.20Q110.94 17.01 110.99 16.54Q111.04 16.08 111.09 15.49Q111.14 14.90 111.20 14.19Q111.26 13.49 111.33 12.82L111.33 12.82Q111.46 11.18 111.65 9.30L111.65 9.30L111.84 6.51L111.36 6.54L110.62 9.30ZM120.96 24.69L115.78 26.03Q116.64 21.78 117.44 17.71L117.44 17.71Q117.73 15.98 118.08 14.11Q118.43 12.24 118.74 10.40Q119.04 8.56 119.31 6.85Q119.58 5.14 119.74 3.73L119.74 3.73Q121.57 3.15 123.68 2.88Q125.79 2.61 127.87 2.61L127.87 2.61Q129.12 2.61 129.94 2.90Q130.75 3.18 131.22 3.71Q131.68 4.24 131.87 4.94Q132.06 5.65 132.06 6.51L132.06 6.51Q132.06 7.79 131.62 9.02Q131.17 10.26 130.42 11.36Q129.66 12.46 128.69 13.38Q127.71 14.29 126.59 14.86L126.59 14.86Q127.17 16.14 127.82 17.66Q128.48 19.18 129.06 20.56L129.06 20.56Q129.70 22.16 130.37 23.76L130.37 23.76L125.41 25.49Q124.77 23.44 124.26 21.65L124.26 21.65Q124.03 20.91 123.81 20.13Q123.58 19.34 123.39 18.64Q123.20 17.94 123.07 17.38Q122.94 16.82 122.91 16.46L122.91 16.46L122.50 16.59Q122.30 17.62 122.03 18.99Q121.76 20.37 121.54 21.65L121.54 21.65Q121.25 23.15 120.96 24.69L120.96 24.69ZM124.32 7.06L123.30 12.14Q123.90 12.08 124.78 11.63Q125.66 11.18 126.46 10.56Q127.26 9.94 127.84 9.26Q128.42 8.59 128.42 8.08L128.42 8.08Q128.42 7.73 128.19 7.52Q127.97 7.31 127.57 7.20Q127.17 7.09 126.69 7.06Q126.21 7.02 125.70 7.02L125.70 7.02Q125.34 7.02 124.98 7.04Q124.61 7.06 124.32 7.06L124.32 7.06ZM140.45 24.43L130.11 26.03L134.30 3.28L144.42 2.42Q144.19 3.12 144.03 3.86L144.03 3.86Q143.87 4.46 143.73 5.12Q143.58 5.78 143.49 6.29L143.49 6.29Q143.17 6.32 142.58 6.34Q141.98 6.35 141.31 6.37Q140.64 6.38 139.95 6.38Q139.26 6.38 138.75 6.38L138.75 6.38L137.63 12.11Q138.62 12.05 139.49 12.02L139.49 12.02Q140.19 11.98 140.93 11.98Q141.66 11.98 142.02 11.95L142.02 11.95Q141.89 12.85 141.78 13.71Q141.66 14.58 141.50 15.47L141.50 15.47Q141.18 15.50 140.46 15.52Q139.74 15.54 139.01 15.57L139.01 15.57Q138.18 15.60 137.18 15.63L137.18 15.63L136.10 21.52L140.77 20.78L140.45 24.43Z"/></svg><text fill="#ffffff" font-family="sans-serif" font-size="16px" x="150" y="216.36999988555908"><tspan dy="0" x="150"></tspan></text></svg>